<?xml version="1.0" standalone="no"?><!DOCTYPE svg PUBLIC "-//W3C//DTD SVG 1.1//EN" "http://www.w3.org/Graphics/SVG/1.1/DTD/svg11.dtd"><svg t="1612772681463" class="icon" viewBox="0 0 1024 1024" version="1.1" xmlns="http://www.w3.org/2000/svg" p-id="2490" xmlns:xlink="http://www.w3.org/1999/xlink" width="200" height="200"><defs><style type="text/css"></style></defs><path d="M310 375.2m-161 0a161 161 0 1 0 322 0 161 161 0 1 0-322 0Z" fill="#FFD400" p-id="2491"></path><path d="M310 224.2c40.3 0 78.3 15.7 106.8 44.2 28.5 28.5 44.2 66.4 44.2 106.8s-15.7 78.3-44.2 106.8c-28.5 28.5-66.4 44.2-106.8 44.2s-78.3-15.7-106.8-44.2c-28.5-28.5-44.2-66.4-44.2-106.8s15.7-78.3 44.2-106.8c28.5-28.5 66.5-44.2 106.8-44.2m0-20c-94.4 0-171 76.6-171 171s76.6 171 171 171 171-76.6 171-171-76.6-171-171-171z" fill="#771725" p-id="2492"></path><path d="M207.3 322.1c-2.5 0-5.9-0.5-8.4-3-3.8-3.8-3.2-9.8-2.5-13.1 1.4-6.4 5.3-13.1 10.9-18.7 7.1-7.1 16-11.5 23.4-11.5 2.5 0 5.9 0.5 8.4 3 3.8 3.8 3.2 9.8 2.5 13.1-1.4 6.4-5.3 13.1-10.9 18.7-7.1 7.1-16.1 11.5-23.4 11.5z" fill="#FFFFFF" p-id="2493"></path><path d="M230.7 280.9c1.5 0 3.6 0.3 4.9 1.5 1.5 1.5 1.9 4.7 1.1 8.5-1.2 5.4-4.7 11.3-9.6 16.3-7.4 7.4-15.1 10-19.9 10-1.5 0-3.6-0.3-4.9-1.5-1.5-1.5-1.9-4.7-1.1-8.5 1.2-5.4 4.7-11.3 9.6-16.3 7.4-7.4 15.2-10 19.9-10m0-10c-8.4 0-18.6 4.6-26.9 12.9-13.1 13.1-16.9 30.5-8.5 38.9 3 3 7.2 4.5 11.9 4.5 8.4 0 18.6-4.6 26.9-12.9 13.1-13.1 16.9-30.5 8.5-38.9-2.9-3.1-7.1-4.5-11.9-4.5z" fill="#771725" p-id="2494"></path><path d="M410.466861 427.400466a165.5 165.5 0 1 0 234.04826-234.05643 165.5 165.5 0 1 0-234.04826 234.05643Z" fill="#FFD400" p-id="2495"></path><path d="M527.5 154.9c41.5 0 80.6 16.2 110 45.6 29.4 29.4 45.6 68.4 45.6 110s-16.2 80.6-45.6 110c-29.4 29.4-68.4 45.6-110 45.6s-80.6-16.2-110-45.6c-29.4-29.4-45.6-68.4-45.6-110s16.2-80.6 45.6-110c29.4-29.5 68.4-45.6 110-45.6m0-20c-96.9 0-175.5 78.6-175.5 175.5s78.6 175.5 175.5 175.5S703 407.3 703 310.4c0-97-78.6-175.5-175.5-175.5z" fill="#771725" p-id="2496"></path><path d="M733.5 353.5m-152 0a152 152 0 1 0 304 0 152 152 0 1 0-304 0Z" fill="#FFD400" p-id="2497"></path><path d="M733.5 211.5c37.9 0 73.6 14.8 100.4 41.6s41.6 62.5 41.6 100.4c0 37.9-14.8 73.6-41.6 100.4s-62.5 41.6-100.4 41.6-73.6-14.8-100.4-41.6-41.6-62.5-41.6-100.4c0-37.9 14.8-73.6 41.6-100.4s62.5-41.6 100.4-41.6m0-20c-89.5 0-162 72.5-162 162s72.5 162 162 162 162-72.5 162-162-72.5-162-162-162z" fill="#771725" p-id="2498"></path><path d="M657.3 294c-2.5 0-5.9-0.5-8.4-3-6.3-6.3-2.4-20.9 8.5-31.8 7.1-7.1 16-11.5 23.4-11.5 2.5 0 5.9 0.5 8.4 3 3.8 3.8 3.2 9.8 2.5 13.1-1.4 6.4-5.3 13.1-10.9 18.7-7.2 7.1-16.2 11.5-23.5 11.5z" fill="#FFFFFF" p-id="2499"></path><path d="M680.7 252.7c1.5 0 3.6 0.3 4.9 1.5 3.3 3.3 1.7 14.6-8.5 24.7-7.4 7.4-15.1 10-19.9 10-1.5 0-3.6-0.3-4.9-1.5-1.5-1.5-1.9-4.7-1.1-8.5 1.2-5.4 4.7-11.3 9.6-16.3 7.4-7.2 15.2-9.9 19.9-9.9m0-10c-8.4 0-18.6 4.6-26.9 12.9-13.1 13.1-16.9 30.5-8.5 38.9 3 3 7.2 4.5 11.9 4.5 8.4 0 18.6-4.6 26.9-12.9 13.1-13.1 16.9-30.5 8.5-38.9-2.9-3-7.1-4.5-11.9-4.5z" fill="#771725" p-id="2500"></path><path d="M200.5 767c-69.8 0-126.6-56.8-126.6-126.6V450.3c0-5.4 4.4-9.8 9.8-9.8h856.6c5.4 0 9.8 4.4 9.8 9.8v190.1c0 69.8-56.8 126.6-126.6 126.6h-623z" fill="#ED393A" p-id="2501"></path><path d="M940.1 450.5v189.9c0 31.1-12.1 60.4-34.1 82.4-22 22-51.3 34.1-82.4 34.1h-623c-31.1 0-60.4-12.1-82.4-34.1-22-22-34.1-51.3-34.1-82.4V450.5h856m0.2-20H83.7c-10.9 0-19.8 8.9-19.8 19.8v190.1c0 75.4 61.2 136.6 136.6 136.6h623c75.4 0 136.6-61.2 136.6-136.6V450.3c0-10.9-8.9-19.8-19.8-19.8z" fill="#771725" p-id="2502"></path><path d="M308.8 842c-4.5 0-8.3-3.7-8.3-8.3V767h423v66.8c0 4.5-3.7 8.3-8.3 8.3H308.8z" fill="#ED393A" p-id="2503"></path><path d="M713.5 777v55h-403v-55h403m20-20h-443v76.8c0 10.1 8.2 18.3 18.3 18.3h406.5c10.1 0 18.3-8.2 18.3-18.3V757h-0.1z" fill="#771725" p-id="2504"></path><path d="M455.3 231c-2.5 0-5.9-0.5-8.4-3-3.8-3.8-3.2-9.8-2.5-13.1 1.4-6.4 5.3-13.1 10.9-18.7 7.1-7.1 16-11.5 23.4-11.5 2.5 0 5.9 0.5 8.4 3 6.3 6.3 2.4 20.9-8.5 31.8-7 7.1-16 11.5-23.3 11.5z" fill="#FFFFFF" p-id="2505"></path><path d="M478.7 189.8c1.5 0 3.6 0.3 4.9 1.5 3.3 3.3 1.7 14.6-8.5 24.7-7.4 7.4-15.1 10-19.9 10-1.5 0-3.6-0.3-4.9-1.5-3.3-3.3-1.7-14.6 8.5-24.7 7.4-7.4 15.2-10 19.9-10m0-10c-8.4 0-18.6 4.6-26.9 12.9-13.1 13.1-16.9 30.5-8.5 38.9 3 3 7.2 4.5 11.9 4.5 8.4 0 18.6-4.6 26.9-12.9 13.1-13.1 16.9-30.5 8.5-38.9-2.9-3.1-7.1-4.5-11.9-4.5zM310 512H138c-5.5 0-10-4.5-10-10s4.5-10 10-10h172c5.5 0 10 4.5 10 10s-4.5 10-10 10zM373.6 512h-30.3c-5.5 0-10-4.5-10-10s4.5-10 10-10h30.3c5.5 0 10 4.5 10 10 0.1 5.5-4.4 10-10 10z" fill="#771725" p-id="2506"></path></svg>