<?xml version="1.0" standalone="no"?><!DOCTYPE svg PUBLIC "-//W3C//DTD SVG 1.1//EN" "http://www.w3.org/Graphics/SVG/1.1/DTD/svg11.dtd"><svg t="1612772676159" class="icon" viewBox="0 0 1024 1024" version="1.1" xmlns="http://www.w3.org/2000/svg" p-id="2345" xmlns:xlink="http://www.w3.org/1999/xlink" width="200" height="200"><defs><style type="text/css"></style></defs><path d="M829.3 714.8c4-151.2-106.2-285.3-260.6-314.3-20.1-3.8-40.5-5.7-60.8-5.7-151.6 0-281.5 105.3-308.8 250.4-4.3 23-6 46.4-4.9 69.6h-86.3c-28.2-27.4-40.8-66-33.6-103.9 6-32 25.8-60.1 54.4-77.1l6.7-4-2.2-7.5c-5.1-17.4-6.1-35.2-2.7-53 5-26.4 18.7-49.5 39.6-66.8 20.4-16.8 46.4-26.6 73.2-27.4l7.6-0.2 1.8-7.4c12.8-51.6 60.2-87.7 115.1-87.7 7.7 0 15.4 0.7 23 2.2 14 2.6 27.2 7.5 39.3 14.6l6.2 3.6 5.4-4.7c21.8-19 50-29.5 79.3-29.5 7.7 0 15.4 0.7 23 2.2 31 5.8 58.1 22.8 76.3 47.8l4.7 6.5 7.3-3.2c15.3-6.6 31.5-9.9 48.2-9.9 7.7 0 15.4 0.7 23 2.2 40.5 7.6 74.1 34.4 89.7 71.6l2.3 5.5 5.9 0.6c3.6 0.4 7.2 0.9 10.7 1.5 31.6 5.9 59 23.4 77.3 49.3 18.2 25.7 25 56.7 19.3 87.1-0.2 1.1-0.4 2.1-0.6 3.2l-1.2 5.7 4.3 3.9c30.4 27.6 44.2 67.5 36.8 106.9-5 26.8-19.7 50.9-41.3 68.1h-77.4z" fill="#ED393A" p-id="2346"></path><path d="M521.1 276c7.1 0 14.2 0.7 21.2 2 28.4 5.3 53.2 20.9 70 43.8l9.4 12.9 14.7-6.3c14-6.1 28.9-9.1 44.3-9.1 7.1 0 14.2 0.7 21.2 2 37.2 7 68 31.5 82.3 65.7l4.6 11 11.8 1.2c3.3 0.3 6.7 0.8 9.8 1.4 29 5.5 54.2 21.5 71 45.2 16.6 23.5 22.9 51.8 17.6 79.5-0.2 0.9-0.4 1.9-0.6 2.9l-2.5 11.3 8.6 7.8c27.8 25.2 40.4 61.7 33.7 97.6-4.4 23.4-16.7 44.4-35 59.9h-63.7c-1-151.9-113.2-284.9-268.8-314.1-20.7-3.9-41.8-5.9-62.6-5.9-156.4 0-290.4 108.7-318.6 258.5-3.8 20.3-5.6 40.9-5.3 61.5h-71.8c-23.8-24.9-34.2-58.7-28-92 2.8-14.9 8.7-28.7 17.5-40.9 8.5-11.9 19.4-21.8 32.2-29.5l13.4-8-4.4-14.9c-4.7-15.8-5.5-32.1-2.5-48.3 4.5-24.1 17-45.1 36.1-60.9 18.7-15.4 42.6-24.3 67.1-25.1l15.2-0.5 3.7-14.7c5.8-23.1 19-43.1 38.4-57.8 19-14.4 42.8-22.4 67-22.4 7.1 0 14.2 0.7 21.2 2 12.8 2.4 25 6.9 36.1 13.4l12.4 7.2 10.8-9.4c19.7-17.4 45.6-27 72.5-27m0-20c-32.4 0-62.8 11.8-85.9 32-12.8-7.4-27-12.8-42.5-15.7-8.4-1.6-16.7-2.3-24.9-2.3-58.6 0-110.7 38.7-124.8 95.3-59.4 1.8-111.2 43.2-122.3 102.3-3.7 19.8-2.4 39.5 3 57.7-30 17.9-52.2 47.5-59.1 83.9-8.3 44 8.1 87 39.5 115.7H205c-2.1-25.5-0.9-51.6 4-77.8 26.9-143 154.6-242.3 299-242.3 19.4 0 39.1 1.8 58.9 5.5 154.7 29.1 261.2 165.7 252 314.5h91.2c24.2-18.1 41.7-44.7 47.7-76.2 8.3-44.2-8.2-87.4-39.9-116.1 0.2-1.1 0.5-2.3 0.7-3.5 12.9-68.5-33.9-134.8-104.6-148.1-3.9-0.7-7.7-1.3-11.5-1.6-16.2-38.7-51.7-69.1-97-77.6-8.4-1.6-16.7-2.3-24.9-2.3-18.4 0-36.1 3.8-52.2 10.8-19-26-47.8-45.2-82.4-51.7-8.4-1.7-16.7-2.5-24.9-2.5z" fill="#771725" p-id="2347"></path><path d="M263.6 713.8c2.5-62.8 28.1-121.4 72.8-166.1 47-47 109.6-73 176.1-73s129.1 25.9 176.1 73c44.7 44.7 70.3 103.3 72.8 166.1H263.6z" fill="#ED393A" p-id="2348"></path><path d="M512.5 484.7c32.3 0 63.6 6.3 93.1 18.8 28.5 12 54 29.3 76 51.2 22 22 39.2 47.5 51.2 76 9.9 23.3 15.9 47.8 18 73.1H274.2c2.1-25.2 8.1-49.7 18-73.1 12-28.5 29.3-54 51.2-76 22-22 47.5-39.2 76-51.2 29.5-12.5 60.8-18.8 93.1-18.8m0-20c-143.1 0-259.1 116-259.1 259.1h518.2c0-143.1-116-259.1-259.1-259.1z" fill="#771725" p-id="2349"></path><path d="M408.3 634.3m-28.3 0a28.3 28.3 0 1 0 56.6 0 28.3 28.3 0 1 0-56.6 0Z" fill="#FFD400" p-id="2350"></path><path d="M408.3 611c12.8 0 23.3 10.4 23.3 23.3s-10.4 23.3-23.3 23.3-23.3-10.5-23.3-23.3 10.4-23.3 23.3-23.3m0-10c-18.4 0-33.3 14.9-33.3 33.3s14.9 33.3 33.3 33.3 33.3-14.9 33.3-33.3-15-33.3-33.3-33.3z" fill="#771725" p-id="2351"></path><path d="M519 568.2m-14 0a14 14 0 1 0 28 0 14 14 0 1 0-28 0Z" fill="#FFD400" p-id="2352"></path><path d="M519 559.2c5 0 9 4 9 9s-4 9-9 9-9-4-9-9 4-9 9-9m0-10c-10.5 0-19 8.5-19 19s8.5 19 19 19 19-8.5 19-19-8.5-19-19-19z" fill="#771725" p-id="2353"></path><path d="M645 606.2m-14 0a14 14 0 1 0 28 0 14 14 0 1 0-28 0Z" fill="#FFD400" p-id="2354"></path><path d="M645 597.2c5 0 9 4 9 9s-4 9-9 9-9-4-9-9 4-9 9-9m0-10c-10.5 0-19 8.5-19 19s8.5 19 19 19 19-8.5 19-19-8.5-19-19-19z" fill="#771725" p-id="2355"></path><path d="M557.7 650.8m-20.6 0a20.6 20.6 0 1 0 41.2 0 20.6 20.6 0 1 0-41.2 0Z" fill="#FFD400" p-id="2356"></path><path d="M557.7 635.2c8.6 0 15.6 7 15.6 15.6s-7 15.6-15.6 15.6-15.6-7-15.6-15.6 7-15.6 15.6-15.6m0-10c-14.1 0-25.6 11.5-25.6 25.6s11.5 25.6 25.6 25.6c14.1 0 25.6-11.5 25.6-25.6s-11.5-25.6-25.6-25.6z" fill="#771725" p-id="2357"></path></svg>