<?xml version="1.0" standalone="no"?><!DOCTYPE svg PUBLIC "-//W3C//DTD SVG 1.1//EN" "http://www.w3.org/Graphics/SVG/1.1/DTD/svg11.dtd"><svg t="1612772241340" class="icon" viewBox="0 0 1024 1024" version="1.1" xmlns="http://www.w3.org/2000/svg" p-id="1427" xmlns:xlink="http://www.w3.org/1999/xlink" width="200" height="200"><defs><style type="text/css"></style></defs><path d="M493.1 949.6c-75.2 0-145.8-8.7-198.8-24.5-24.8-7.4-44.9-16.3-58.2-25.7-8.3-5.9-18.2-15-18.2-25 0-0.4 0-0.9 0.1-1.5V314.2h550.2v560.2c0 10-9.9 19.1-18.2 25-13.3 9.4-33.4 18.3-58.2 25.7-52.9 15.7-123.4 24.5-198.7 24.5z" fill="#ED393A" p-id="1428"></path><path d="M758.3 324.2v550.2c0 8.2-18.4 25.9-69.2 41.1-52 15.6-121.6 24.1-195.9 24.1s-143.8-8.6-195.9-24.1c-50.8-15.2-69.2-32.9-69.2-41.1v-0.5l0.1-0.9V324.2h530.1m20-20H208.1V872c-0.1 0.8-0.1 1.6-0.1 2.4 0 47.1 127.7 85.2 285.1 85.2s285.1-38.1 285.1-85.2V304.2h0.1z" fill="#771725" p-id="1429"></path><path d="M493.1 532.9c-119 0-227.3-20.3-278-51.9v-41.6c55.4 30.4 162.1 49.7 278 49.7 116.1 0 222.7-19.3 278.1-49.8v41.6c-50.6 31.6-159 52-278.1 52z" fill="#FFD400" p-id="1430"></path><path d="M764.3 450.7v26.2c-23 13.4-58.8 25.3-102 33.8-50.2 9.9-108.7 15.1-169.2 15.1-60.5 0-118.9-5.2-169.1-15.1-43.1-8.5-78.9-20.4-102-33.8v-26.2c24.9 11.9 57.7 22 96.5 29.6 51.9 10.2 112.2 15.6 174.5 15.6s122.7-5.4 174.6-15.7c39-7.5 71.8-17.6 96.7-29.5m14-23.8C729.5 459.4 620.2 482 493.1 482c-126.9 0-236.2-22.6-285-55.1v57.8c48.9 32.5 158.1 55.1 285 55.1 127 0 236.3-22.7 285.1-55.2v-57.7h0.1z" fill="#771725" p-id="1431"></path><path d="M493.1 664.5c-119 0-227.3-20.3-278-51.9V571c55.4 30.4 162.1 49.7 278 49.7 116.1 0 222.7-19.3 278.1-49.8v41.6c-50.6 31.7-159 52-278.1 52z" fill="#FFD400" p-id="1432"></path><path d="M764.3 582.4v26.2c-23 13.4-58.8 25.3-102 33.8-50.2 9.9-108.7 15.1-169.2 15.1-60.5 0-118.9-5.2-169.1-15.1-43.1-8.5-78.9-20.4-102-33.8v-26.2c24.9 11.9 57.7 22 96.5 29.6 51.9 10.2 112.2 15.6 174.5 15.6s122.7-5.4 174.6-15.7c39-7.5 71.8-17.6 96.7-29.5m14-23.9c-48.8 32.5-158.1 55.2-285.1 55.2-126.9 0-236.2-22.6-285-55.1v57.8c48.9 32.5 158.1 55.1 285 55.1 127 0 236.3-22.7 285.1-55.2v-57.8z" fill="#771725" p-id="1433"></path><path d="M493.1 796.2c-119 0-227.3-20.3-278-51.9v-41.6c55.4 30.4 162.1 49.7 278 49.7 116.1 0 222.7-19.3 278.1-49.8v41.6c-50.6 31.6-159 52-278.1 52z" fill="#FFD400" p-id="1434"></path><path d="M764.3 714v26.2c-23 13.4-58.8 25.3-102 33.8-50.2 9.9-108.7 15.1-169.2 15.1-60.5 0-118.9-5.2-169.1-15.1-43.1-8.5-78.9-20.4-102-33.8V714c24.9 11.9 57.7 22 96.5 29.6 51.9 10.2 112.2 15.6 174.5 15.6s122.7-5.4 174.6-15.7c39-7.5 71.8-17.6 96.7-29.5m14-23.8c-48.8 32.5-158.1 55.2-285.1 55.2-126.9 0-236.2-22.6-285-55.1v57.8c48.9 32.5 158.1 55.1 285 55.1 127 0 236.3-22.7 285.1-55.2v-57.8z" fill="#771725" p-id="1435"></path><path d="M493.1 379.4c-75.2 0-145.8-8.7-198.8-24.5-24.8-7.4-44.9-16.3-58.2-25.7-8.3-5.9-18.2-15-18.2-25s9.9-19.1 18.2-25c13.3-9.4 33.4-18.3 58.2-25.7 53-15.8 123.5-24.5 198.8-24.5s145.8 8.7 198.8 24.5c24.8 7.4 44.9 16.3 58.2 25.7 8.3 5.9 18.2 15 18.2 25s-9.9 19.1-18.2 25c-13.3 9.4-33.4 18.3-58.2 25.7-53 15.8-123.5 24.5-198.8 24.5z" fill="#ED393A" p-id="1436"></path><path d="M493.1 239c74.3 0 143.8 8.6 195.9 24.1 50.8 15.2 69.2 32.9 69.2 41.1s-18.4 25.9-69.2 41.1c-52 15.6-121.6 24.1-195.9 24.1-74.3 0-143.8-8.6-195.9-24.1-50.8-15.2-69.2-32.9-69.2-41.1s18.4-25.9 69.2-41.1c52.1-15.5 121.7-24.1 195.9-24.1m0-20C335.7 219 208 257.1 208 304.2s127.7 85.2 285.1 85.2 285.1-38.1 285.1-85.2S650.6 219 493.1 219z" fill="#771725" p-id="1437"></path><path d="M493.1 356.9c-52.7 0-102.2-6.1-139.4-17.2-33.5-10-53.6-23.3-53.6-35.5s20-25.5 53.6-35.5c37.1-11.1 86.6-17.2 139.4-17.2 52.7 0 102.2 6.1 139.4 17.2 33.5 10 53.6 23.3 53.6 35.5s-20 25.5-53.6 35.5c-37.1 11.1-86.6 17.2-139.4 17.2z" fill="#FFD400" p-id="1438"></path><path d="M493.1 258.5c52.1 0 100.9 6 137.4 16.9 35.6 10.6 48.6 23.1 48.6 28.8s-12.9 18.2-48.6 28.8c-36.5 10.9-85.3 16.9-137.4 16.9s-100.9-6-137.4-16.9c-35.6-10.6-48.6-23.1-48.6-28.8s12.9-18.2 48.6-28.8c36.6-10.9 85.4-16.9 137.4-16.9m0-14c-110.4 0-199.9 26.7-199.9 59.7s89.5 59.7 199.9 59.7S693 337.2 693 304.2s-89.4-59.7-199.9-59.7z" fill="#771725" p-id="1439"></path><path d="M361.2 86.6c56.7-14.3 117.2 31.3 135 101.6 9.3 36.8 5 73.2-9.3 101.5-1.5 3 0.7 6.6 4.1 6.6h12.1c1.5-1 2.7-1.7 4.2-2.6 15-33 18-72.2 8.4-110.4-9.8-38.9-31.5-72.4-61.2-94.3-30.2-22.4-65.1-30.1-98.1-21.8-0.6 0.1-1.1 0.3-1.7 0.4-2.7 0.7-4.1 3.6-3 6.1l4.2 10.2c0.8 2.2 3.1 3.3 5.3 2.7z" fill="#771725" p-id="1440"></path></svg>