<?xml version="1.0" standalone="no"?><!DOCTYPE svg PUBLIC "-//W3C//DTD SVG 1.1//EN" "http://www.w3.org/Graphics/SVG/1.1/DTD/svg11.dtd"><svg t="1612772670732" class="icon" viewBox="0 0 1024 1024" version="1.1" xmlns="http://www.w3.org/2000/svg" p-id="2198" xmlns:xlink="http://www.w3.org/1999/xlink" width="200" height="200"><defs><style type="text/css"></style></defs><path d="M743.6 959.1c-5.6 2.9-12.3-0.5-13.7-7-3.5-16.4-5.6-48.3 14.5-89.9 9.2-19 2-43-21.5-71.1-19-22.7-41.3-39-41.5-39.1l11.2-17.7c4.1 3 100.6 73.7 69.7 137.8-17.5 36.2-15.6 62.6-12.9 75 1 4.8-1.2 9.8-5.4 11.9-0.3 0-0.4 0.1-0.4 0.1z" fill="#771725" p-id="2199"></path><path d="M656.8 745.1c-1.6 0-2.4-1-2.7-1.6-0.3-0.6-0.7-1.8 0.2-3.1l47.2-69.9c0.8-1.2 1.9-1.3 2.5-1.3s1.7 0.2 2.5 1.3l47.2 69.9c0.9 1.3 0.5 2.5 0.2 3.1-0.3 0.6-1.1 1.6-2.7 1.6h-94.4z" fill="#ED393A" p-id="2200"></path><path d="M704 684.5l19.3 28.6 14.8 21.9h-68.2l14.8-21.9 19.3-28.6m0-25.4c-4.1 0-8.2 1.9-10.8 5.7l-25.1 37.1-22.1 32.8c-5.9 8.7 0.4 20.3 10.8 20.3h94.4c10.5 0 16.7-11.7 10.8-20.3l-22.1-32.8-25.1-37.1c-2.6-3.8-6.7-5.7-10.8-5.7z" fill="#771725" p-id="2201"></path><path d="M274 623.4c-1.6 0-2.4-1-2.7-1.6s-0.7-1.8 0.2-3.1l47.2-69.9c0.8-1.2 1.9-1.3 2.5-1.3 0.6 0 1.7 0.2 2.5 1.3l47.2 69.9c0.9 1.3 0.5 2.5 0.2 3.1-0.3 0.6-1.1 1.6-2.7 1.6H274z" fill="#FFD400" p-id="2202"></path><path d="M321.2 562.9l19.3 28.6 14.8 21.9h-68.2l14.8-21.9 19.3-28.6m0-25.5c-4.1 0-8.2 1.9-10.8 5.7l-25.1 37.1-22.1 32.8c-5.9 8.7 0.4 20.3 10.8 20.3h94.4c10.5 0 16.7-11.7 10.8-20.3l-22.1-32.8-25.1-37c-2.6-3.9-6.7-5.8-10.8-5.8z" fill="#771725" p-id="2203"></path><path d="M398.2 956.5a9.76 9.76 0 0 1-13.8-2.5c-5-7.5-12.6-19.5-19.9-32.6-23.3-42.3-21-58.4-17.3-66.8 2.9-6.6-6.7-18.7-17.8-32.8-14.3-18-32-40.5-41.3-71.4-15.1-49.9 13.4-96.4 27.3-115.1 3.5-4.7 10.3-5.4 14.7-1.5l7 6.3-7.4-6.7h12.7c-0.5 0.5-51 58.8-35.1 111.2 8.3 27.3 24.7 48.1 37.9 64.8 15.1 19.1 28.2 35.7 20.3 53.3-0.5 1.1-4.1 11.5 16.4 48.9 6.8 12.3 14.1 23.8 18.9 31.1 3 4.5 1.9 10.6-2.5 13.7l-0.1 0.1z" fill="#771725" p-id="2204"></path><path d="M321.2 570.6c-65.7 0-127.5-25.6-173.9-72.1-46.5-46.5-72.1-108.2-72.1-173.9s25.6-127.5 72.1-173.9 108.2-72.1 173.9-72.1 127.5 25.6 173.9 72.1c46.5 46.5 72.1 108.2 72.1 173.9s-25.6 127.5-72.1 173.9c-46.4 46.5-108.2 72.1-173.9 72.1z" fill="#FFD400" p-id="2205"></path><path d="M321.2 88.6c31.9 0 62.8 6.2 91.9 18.5 28.1 11.9 53.3 28.9 75 50.6 21.7 21.7 38.7 46.9 50.6 75 12.3 29.1 18.5 60 18.5 91.9s-6.2 62.8-18.5 91.9c-11.9 28.1-28.9 53.3-50.6 75-21.7 21.7-46.9 38.7-75 50.6-29.1 12.3-60 18.5-91.9 18.5s-62.8-6.2-91.9-18.5c-28.1-11.9-53.3-28.9-75-50.6-21.7-21.7-38.7-46.9-50.6-75-12.3-29.1-18.5-60-18.5-91.9s6.2-62.8 18.5-91.9c11.9-28.1 28.9-53.3 50.6-75 21.7-21.7 46.9-38.7 75-50.6 29.1-12.3 60.1-18.5 91.9-18.5m0-20c-141.4 0-256 114.6-256 256s114.6 256 256 256 256-114.6 256-256-114.6-256-256-256z" fill="#771725" p-id="2206"></path><path d="M504.8 373.1c-5.4-0.7-9.2-5.5-8.7-10.8 6.5-68.2-9.1-122.9-46.5-162.5-20.3-21.6-42.3-32.9-53.8-37.9-4.7-2-7.1-7.1-5.7-12 1.7-5.8 8-8.7 13.5-6.4 13.3 5.7 37.2 18.1 59.7 41.8 19.3 20.2 33.7 44.5 42.8 72.2 10.3 31.5 13.6 67.3 9.9 106.7-0.6 5.5-5.6 9.6-11.2 8.9z" fill="#ED393A" p-id="2207"></path><path d="M704 692.2c-65.7 0-127.5-25.6-173.9-72.1-46.5-46.4-72.1-108.2-72.1-173.9s25.6-127.5 72.1-173.9c46.5-46.5 108.2-72.1 173.9-72.1s127.5 25.6 173.9 72.1S950 380.5 950 446.2s-25.6 127.5-72.1 173.9c-46.4 46.5-108.2 72.1-173.9 72.1z" fill="#ED393A" p-id="2208"></path><path d="M704 210.2c31.9 0 62.8 6.2 91.9 18.5 28.1 11.9 53.3 28.9 75 50.6 21.7 21.7 38.7 46.9 50.6 75 12.3 29.1 18.5 60 18.5 91.9s-6.2 62.8-18.5 91.9c-11.9 28.1-28.9 53.3-50.6 75-21.7 21.7-46.9 38.7-75 50.6-29.1 12.3-60 18.5-91.9 18.5s-62.8-6.2-91.9-18.5c-28.1-11.9-53.3-28.9-75-50.6-21.7-21.7-38.7-46.9-50.6-75-12.3-29.1-18.5-60-18.5-91.9s6.2-62.8 18.5-91.9c11.9-28.1 28.9-53.3 50.6-75 21.7-21.7 46.9-38.7 75-50.6 29.1-12.2 60-18.5 91.9-18.5m0-20c-141.4 0-256 114.6-256 256s114.6 256 256 256 256-114.6 256-256-114.6-256-256-256z" fill="#771725" p-id="2209"></path><path d="M887.6 494.7c-5.4-0.7-9.2-5.5-8.7-10.8 6.5-68.2-9.1-122.9-46.5-162.5-20.3-21.6-42.3-32.9-53.8-37.9-4.7-2-7.1-7.1-5.7-12 1.7-5.8 8-8.7 13.5-6.4 13.3 5.7 37.2 18.1 59.7 41.8 19.3 20.2 33.7 44.5 42.8 72.2 10.3 31.5 13.6 67.3 9.9 106.7-0.6 5.5-5.6 9.6-11.2 8.9z" fill="#FFD400" p-id="2210"></path></svg>