<?xml version="1.0" standalone="no"?><!DOCTYPE svg PUBLIC "-//W3C//DTD SVG 1.1//EN" "http://www.w3.org/Graphics/SVG/1.1/DTD/svg11.dtd"><svg t="1612772661817" class="icon" viewBox="0 0 1024 1024" version="1.1" xmlns="http://www.w3.org/2000/svg" p-id="2060" xmlns:xlink="http://www.w3.org/1999/xlink" width="200" height="200"><defs><style type="text/css"></style></defs><path d="M240.1 956.1c-8.7-6.8-10.3-19.3-3.5-28.1L900.5 71.9c6.8-8.7 19.3-10.3 28.1-3.5 8.7 6.8 10.3 19.3 3.5 28.1L268.2 952.6c-6.8 8.7-19.3 10.3-28.1 3.5z" fill="#771725" p-id="2061"></path><path d="M882.1 263.1c-14 0-27.2-4.5-38.2-13l-82.4-63.9c-13.1-10.2-21.5-25-23.6-41.6s2.4-33 12.5-46.2c11.9-15.3 30-24.2 49.6-24.2 14 0 27.2 4.5 38.2 13l82.4 63.9c27.3 21.1 32.2 60.5 11.1 87.8-11.9 15.4-30 24.2-49.6 24.2z" fill="#ED393A" p-id="2062"></path><path d="M800 84.2c11.8 0 22.9 3.8 32.1 10.9l82.4 63.9c11 8.6 18.1 21 19.9 35 1.8 14-2 27.8-10.5 38.8-10 12.9-25.2 20.3-41.7 20.3-11.8 0-22.9-3.8-32.1-10.9l-82.4-63.9c-11-8.6-18.1-21-19.9-35-1.8-14 2-27.8 10.5-38.8 10-12.9 25.2-20.3 41.7-20.3m0-20c-21.7 0-43.2 9.6-57.5 28-24.5 31.5-18.7 77.4 12.9 101.8l82.4 63.9c13.2 10.2 28.8 15.1 44.4 15.1 21.7 0 43.2-9.6 57.5-28 24.5-31.5 18.7-77.4-12.9-101.8l-82.4-63.9c-13.2-10.2-28.9-15.1-44.4-15.1z" fill="#771725" p-id="2063"></path><path d="M766.1 412.7c-14 0-27.2-4.5-38.2-13l-82.4-63.9c-13.1-10.2-21.5-25-23.6-41.6-2.1-16.6 2.4-33 12.5-46.2 11.9-15.3 30-24.2 49.6-24.2 14 0 27.2 4.5 38.2 13l82.4 63.9c27.3 21.1 32.2 60.5 11.1 87.8-12 15.4-30 24.2-49.6 24.2z" fill="#ED393A" p-id="2064"></path><path d="M683.9 233.9c11.8 0 22.9 3.8 32.1 10.9l82.4 63.9c11 8.6 18.1 21 19.9 35 1.8 14-2 27.8-10.5 38.8-10 12.9-25.2 20.3-41.7 20.3-11.8 0-22.9-3.8-32.1-10.9L651.6 328c-11-8.6-18.1-21-19.9-35-1.8-14 2-27.8 10.5-38.8 10.1-13 25.2-20.3 41.7-20.3m0-20c-21.7 0-43.2 9.6-57.5 28-24.5 31.5-18.7 77.4 12.9 101.8l82.4 63.9c13.2 10.2 28.8 15.1 44.4 15.1 21.7 0 43.2-9.6 57.5-28 24.5-31.5 18.7-77.4-12.9-101.8L728.3 229c-13.2-10.2-28.8-15.2-44.4-15.1z" fill="#771725" p-id="2065"></path><path d="M650 562.4c-14 0-27.2-4.5-38.2-13l-82.4-63.9c-13.1-10.2-21.5-25-23.6-41.6-2.1-16.6 2.4-33 12.5-46.2 11.9-15.3 30-24.2 49.6-24.2 14 0 27.2 4.5 38.2 13l82.4 63.9c13.1 10.2 21.5 25 23.6 41.6s-2.4 33-12.5 46.2c-11.9 15.4-30 24.2-49.6 24.2z" fill="#ED393A" p-id="2066"></path><path d="M567.9 383.5c11.8 0 22.9 3.8 32.1 10.9l82.4 63.9c11 8.6 18.1 21 19.9 35 1.8 14-2 27.8-10.5 38.8-10 12.9-25.2 20.3-41.7 20.3-11.8 0-22.9-3.8-32.1-10.9l-82.4-63.9c-11-8.6-18.1-21-19.9-35-1.8-14 2-27.8 10.5-38.8 10-12.9 25.2-20.3 41.7-20.3m0-20c-21.7 0-43.2 9.6-57.5 28-24.5 31.5-18.7 77.4 12.9 101.8l82.4 63.9c13.2 10.2 28.8 15.1 44.4 15.1 21.7 0 43.2-9.6 57.5-28 24.5-31.5 18.7-77.4-12.9-101.8l-82.4-63.9c-13.2-10.1-28.9-15.1-44.4-15.1z" fill="#771725" p-id="2067"></path><path d="M533.9 712.1c-14 0-27.2-4.5-38.2-13l-82.4-63.9c-27.3-21.1-32.2-60.5-11.1-87.8 11.9-15.3 30-24.2 49.6-24.2 14 0 27.2 4.5 38.2 13l82.4 63.9c13.1 10.2 21.5 25 23.6 41.6 2.1 16.6-2.4 33-12.5 46.2-11.9 15.4-30 24.2-49.6 24.2z" fill="#ED393A" p-id="2068"></path><path d="M451.8 533.2c11.8 0 22.9 3.8 32.1 10.9l82.4 63.9c11 8.6 18.1 21 19.9 35 1.8 14-2 27.8-10.5 38.8-10 12.9-25.2 20.3-41.7 20.3-11.8 0-22.9-3.8-32.1-10.9l-82.4-63.9c-11-8.6-18.1-21-19.9-35-1.8-14 2-27.8 10.5-38.8 10-12.9 25.2-20.3 41.7-20.3m0-20c-21.7 0-43.2 9.6-57.5 28-24.5 31.5-18.7 77.4 12.9 101.8l82.4 63.9c13.2 10.2 28.8 15.1 44.4 15.1 21.7 0 43.2-9.6 57.5-28 24.5-31.5 18.7-77.4-12.9-101.8l-82.4-63.9c-13.2-10.2-28.8-15.1-44.4-15.1z" fill="#771725" p-id="2069"></path></svg>