<?xml version="1.0" standalone="no"?><!DOCTYPE svg PUBLIC "-//W3C//DTD SVG 1.1//EN" "http://www.w3.org/Graphics/SVG/1.1/DTD/svg11.dtd"><svg t="1612772250550" class="icon" viewBox="0 0 1024 1024" version="1.1" xmlns="http://www.w3.org/2000/svg" p-id="1629" xmlns:xlink="http://www.w3.org/1999/xlink" width="200" height="200"><defs><style type="text/css"></style></defs><path d="M234 949.6c-22.7 0-41.3-18.5-41.3-41.3V115.2c0-22.7 18.5-41.3 41.3-41.3h556c22.7 0 41.3 18.5 41.3 41.3v793.1c0 22.7-18.5 41.3-41.3 41.3H234z" fill="#ED393A" p-id="1630"></path><path d="M790 83.9c17.2 0 31.3 14 31.3 31.3v793.1c0 17.2-14 31.3-31.3 31.3H234c-17.2 0-31.3-14-31.3-31.3V115.2c0-17.2 14-31.3 31.3-31.3h556m0-20H234c-28.3 0-51.3 22.9-51.3 51.3v793.1c0 28.3 22.9 51.3 51.3 51.3h556c28.3 0 51.3-22.9 51.3-51.3V115.2c-0.1-28.3-23-51.3-51.3-51.3z" fill="#771725" p-id="1631"></path><path d="M841.2 351.5c-1.2 3-24.9 24.4-27.7 26.9-5.8 5.2-15.4 9.9-29.3 14.4l-138.1 37.8c-43.7 11.9-88.8 18-134.1 18s-90.4-6.1-134.1-18l-138.2-37.8c-23.4-7.5-53.8-29-56.9-36.3v19.9c4.4 21.9 25.3 27.4 51.3 35.6l138.6 37.9c45.6 12.5 92.5 18.7 139.4 18.7s93.8-6.2 139.4-18.7L790 412c26.4-8.6 46.9-17.3 51.3-39.2v-21.3z" fill="#771725" p-id="1632"></path><path d="M512 429.6m-143 0a143 143 0 1 0 286 0 143 143 0 1 0-286 0Z" fill="#FFD400" p-id="1633"></path><path d="M512 296.6c35.5 0 68.9 13.8 94 39 25.1 25.1 39 58.5 39 94s-13.8 68.9-39 94c-25.1 25.1-58.5 39-94 39s-68.9-13.8-94-39c-25.1-25.1-39-58.5-39-94s13.8-68.9 39-94c25.1-25.2 58.5-39 94-39m0-20c-84.5 0-153 68.5-153 153s68.5 153 153 153 153-68.5 153-153-68.5-153-153-153z" fill="#771725" p-id="1634"></path><path d="M557.2 415.2h-90.3c-5.5 0-10-4.5-10-10s4.5-10 10-10h90.3c5.5 0 10 4.5 10 10s-4.5 10-10 10zM567 463.9H457c-5.5 0-10-4.5-10-10s4.5-10 10-10h110c5.5 0 10 4.5 10 10 0 5.6-4.5 10-10 10z" fill="#771725" p-id="1635"></path><path d="M522 410.7V508c0 5.5-4.5 10-10 10s-10-4.5-10-10v-97.3c0-5.5 4.5-10 10-10s10 4.4 10 10z" fill="#771725" p-id="1636"></path><path d="M482.5 352.8l33.6 43.3c1 1.3 0.8 3.3-0.5 4.3l-11.2 8.7c-1.2 0.9-2.9 0.7-3.8-0.5L466.7 365c-3.4-4.4-2.6-10.6 1.8-14 4.4-3.4 10.6-2.6 14 1.8z" fill="#771725" p-id="1637"></path><path d="M542.1 352.8l-33.6 43.3c-1 1.3-0.8 3.3 0.5 4.3l11.2 8.7c1.2 0.9 2.9 0.7 3.8-0.5l33.8-43.6c3.4-4.4 2.6-10.6-1.8-14-4.2-3.4-10.5-2.6-13.9 1.8z" fill="#771725" p-id="1638"></path></svg>