<?xml version="1.0" standalone="no"?><!DOCTYPE svg PUBLIC "-//W3C//DTD SVG 1.1//EN" "http://www.w3.org/Graphics/SVG/1.1/DTD/svg11.dtd"><svg t="1612772258566" class="icon" viewBox="0 0 1024 1024" version="1.1" xmlns="http://www.w3.org/2000/svg" p-id="1773" xmlns:xlink="http://www.w3.org/1999/xlink" width="200" height="200"><defs><style type="text/css"></style></defs><path d="M512 950c-66.4 0-128.9-25.9-175.8-72.8-47-47-72.8-109.4-72.8-175.8 0-45.6 15-91.2 43.2-131.9 26-37.4 62.9-69.5 103.8-90.4l14.4-7.4-13.1-9.6c-21-15.4-38.4-35.8-50.4-58.9-12.5-24.2-18.9-50.4-18.9-77.8 0-43.5 19.6-86 55.3-119.7 33.1-31.2 75.8-49.9 114.3-49.9 41.1 0 83.6 18.1 116.4 49.8 34.3 33.1 53.2 75.6 53.2 119.8 0 27.1-6.2 53-18.5 77-11.7 22.9-28.8 43.2-49.4 58.6l-13 9.7 14.5 7.2c41.6 20.7 77.4 51.9 103.4 90.4 27.5 40.5 42 86.5 42 133 0 66.4-25.9 128.9-72.8 175.8S578.4 950 512 950z" fill="#ED393A" p-id="1774"></path><path d="M512 165.8c38.6 0 78.5 17.1 109.4 47 15.5 15 27.8 32.1 36.5 51 9.1 19.8 13.7 40.5 13.7 61.6 0 25.5-5.8 49.9-17.4 72.5-11 21.5-27.1 40.6-46.5 55.2l-25.9 19.5 29 14.4c19.7 9.8 38.2 22.2 55.1 36.9 17.1 14.9 32 31.7 44.5 50.1 26.3 38.9 40.3 82.9 40.3 127.4 0 32.2-6.3 63.5-18.7 92.9-12 28.4-29.2 53.9-51.2 75.9-21.9 21.9-47.5 39.1-75.9 51.2-29.4 12.3-60.7 18.6-92.9 18.6s-63.5-6.3-92.9-18.7c-28.4-12-53.9-29.2-75.9-51.2-21.9-21.9-39.1-47.5-51.2-75.9-12.4-29.4-18.7-60.7-18.7-92.9 0-43.6 14.3-87.2 41.5-126.2 25.1-36.1 60.7-67.1 100.1-87.3l28.8-14.7-26.1-19.1c-19.8-14.5-36.2-33.7-47.4-55.4-11.8-22.8-17.8-47.4-17.8-73.2 0.1-88.5 87.3-159.6 159.6-159.6m0-20c-83.6 0-179.5 80.4-179.5 179.5 0 59.4 28.9 112.1 73.3 144.8-83.2 42.5-152.5 130.1-152.5 231.2C253.3 844.2 369.1 960 512 960s258.7-115.8 258.7-258.7c0-102-66.2-190.2-151-232.3 43.6-32.8 71.8-84.9 71.8-143.7 0-99.1-90-179.5-179.5-179.5z" fill="#771725" p-id="1775"></path><path d="M470.2 162.7V88.2c0-10.6 7.7-19.2 17.1-19.2h49.3c9.4 0 17.1 8.6 17.1 19.2v74.5h-83.5z" fill="#ED393A" p-id="1776"></path><path d="M552.3 152.1h-80.6c-3.6 0-6.5-2.9-6.5-6.5v-12.5h93.6v12.5c0 3.6-2.9 6.5-6.5 6.5z" fill="#FFD400" p-id="1777"></path><path d="M536.7 74.5c6.7 0 12.1 5.7 12.1 12.8v64.8h-73.6V87.3c0-7 5.4-12.8 12.1-12.8h49.4m0-10.5h-49.3c-12.2 0-22.1 10.4-22.1 23.3v75.3h93.6V87.3c-0.1-12.9-10-23.3-22.2-23.3z" fill="#771725" p-id="1778"></path><path d="M447.6 847.6c-3.6 0-6.6-1.9-8.2-5.1l-16.6-33.7c-2.8-5.6-8.2-9.6-14.4-10.5l-37.2-5.4c-3.5-0.5-6.3-2.8-7.4-6.2-1.1-3.4-0.2-6.9 2.3-9.4L393 751c4.5-4.4 6.6-10.7 5.5-16.9l-6.4-37.1c-0.5-2.7 0.2-5.3 2-7.4 1.8-2.1 4.4-3.3 7-3.3 1.5 0 2.9 0.4 4.3 1.1l33.3 17.5c2.7 1.4 5.8 2.2 8.9 2.2s6.2-0.8 8.9-2.2l33.3-17.5c1.4-0.7 2.8-1.1 4.3-1.1 2.6 0 5.3 1.2 7 3.3 1.7 2.1 2.4 4.7 2 7.4l-6.4 37.1c-1.1 6.2 1 12.5 5.5 16.9l26.9 26.3c2.5 2.5 3.4 6 2.3 9.4-1.1 3.4-3.9 5.7-7.4 6.2l-37.2 5.4c-6.2 0.9-11.6 4.8-14.4 10.5l-16.6 33.7c-1.5 3.2-4.6 5.1-8.2 5.1z" fill="#FFD400" p-id="1779"></path><path d="M494.1 691.3c1.2 0 2.4 0.6 3.2 1.5 0.8 0.9 1.1 2 0.9 3.3l-6.4 37.1c-1.3 7.8 1.3 15.8 6.9 21.4l26.9 26.3c1.6 1.6 1.3 3.3 1 4.2-0.3 0.9-1.1 2.5-3.3 2.8l-37.2 5.4c-7.9 1.1-14.7 6.1-18.2 13.2l-16.6 33.7c-1 2-2.7 2.3-3.7 2.3s-2.7-0.3-3.7-2.3l-16.6-33.7c-3.5-7.1-10.3-12.1-18.2-13.2l-37.2-5.4c-2.2-0.3-3-1.9-3.3-2.8s-0.6-2.7 1-4.2l26.9-26.3c5.7-5.5 8.3-13.5 6.9-21.4l-6.4-37.1c-0.2-1.3 0.1-2.4 0.9-3.3 0.8-1 2-1.5 3.2-1.5 0.6 0 1.3 0.2 1.9 0.5l33.3 17.5c3.4 1.8 7.3 2.8 11.2 2.8 3.9 0 7.8-1 11.2-2.8l33.3-17.5c0.8-0.3 1.5-0.5 2.1-0.5m0-10c-2.2 0-4.4 0.5-6.6 1.7l-33.3 17.5c-2.1 1.1-4.3 1.6-6.6 1.6s-4.5-0.5-6.6-1.6L407.8 683c-2.2-1.1-4.4-1.7-6.6-1.7-8.2 0-15.5 7.4-13.9 16.6l6.4 37.1c0.8 4.6-0.7 9.3-4.1 12.5l-26.9 26.3c-8.4 8.2-3.8 22.4 7.8 24.1l37.2 5.4c4.6 0.7 8.6 3.6 10.6 7.7l16.6 33.7c2.6 5.3 7.6 7.9 12.7 7.9s10.1-2.6 12.7-7.9L477 811c2.1-4.2 6-7.1 10.6-7.7l37.2-5.4c11.6-1.7 16.2-15.9 7.8-24.1l-26.9-26.3c-3.3-3.2-4.9-7.9-4.1-12.5l6.4-37.1c1.6-9.1-5.7-16.6-13.9-16.6z" fill="#771725" p-id="1780"></path><path d="M648.7 454.8H380.6c-8.3 0-15 6.7-15 15s6.7 15 15 15h71.9c-21.1 18.7-34.7 47.1-34.7 78.9 0 11.3 1.7 22.2 4.9 32.3 2 6.3 7.7 10.7 14.4 10.7 10.1 0 17.3-9.8 14.3-19.5-2.3-7.3-3.5-15.2-3.5-23.4 0-39.6 28.7-71.8 64-71.8s64 32.2 64 71.8c0 8.2-1.2 16.1-3.5 23.4-3 9.7 4.1 19.5 14.3 19.5 6.6 0 12.4-4.3 14.4-10.7 3.1-10.2 4.9-21 4.9-32.3 0-31.8-13.5-60.2-34.7-78.9h77.6c8.3 0 15-6.7 15-15s-6.9-15-15.2-15z" fill="#FFD400" p-id="1781"></path><path d="M586.6 611.7c-6.4 0-12.2-2.9-16-8.1-3.8-5.2-4.9-11.7-3-17.9 2.2-7 3.3-14.4 3.3-22 0-36.8-26.5-66.8-59-66.8s-59 30-59 66.8c0 7.5 1.1 14.9 3.3 22 1.9 6.2 0.8 12.7-3 17.9-3.8 5.1-9.6 8.1-16 8.1-8.8 0-16.5-5.7-19.1-14.2-3.4-10.9-5.1-22.3-5.1-33.8 0-27.8 9.9-54.1 27.6-73.9h-59.8c-11 0-20-9-20-20s9-20 20-20h268.1c11 0 20 9 20 20s-9 20-20 20h-65.5c17.7 19.8 27.6 46.1 27.6 73.9 0 11.5-1.7 22.9-5.1 33.8-2.8 8.5-10.5 14.2-19.3 14.2z m-74.7-124.8c38 0 69 34.5 69 76.8 0 8.5-1.3 16.9-3.7 24.9-1 3.1-0.4 6.4 1.5 9 1.9 2.6 4.8 4 8 4 4.4 0 8.3-2.9 9.6-7.1 3.1-9.9 4.6-20.3 4.6-30.8 0-29.3-12-56.7-33-75.2l-9.9-8.7h90.8c5.5 0 10-4.5 10-10s-4.5-10-10-10H380.6c-5.5 0-10 4.5-10 10s4.5 10 10 10h85.1l-9.9 8.7c-21 18.5-33 45.9-33 75.2 0 10.5 1.6 20.9 4.6 30.8 1.3 4.3 5.2 7.1 9.6 7.1 3.2 0 6.1-1.5 8-4 1.9-2.6 2.5-5.9 1.5-9-2.5-8-3.7-16.4-3.7-24.9 0.1-42.4 31-76.8 69.1-76.8z" fill="#771725" p-id="1782"></path></svg>