<?xml version="1.0" standalone="no"?><!DOCTYPE svg PUBLIC "-//W3C//DTD SVG 1.1//EN" "http://www.w3.org/Graphics/SVG/1.1/DTD/svg11.dtd"><svg t="1612772265148" class="icon" viewBox="0 0 1024 1024" version="1.1" xmlns="http://www.w3.org/2000/svg" p-id="1917" xmlns:xlink="http://www.w3.org/1999/xlink" width="200" height="200"><defs><style type="text/css"></style></defs><path d="M286.2 949.6c-24.5 0-46.7-15.4-55.2-38.4l-11.8-31.8c-21.5-57.9-37.2-118-46.7-178.6-9.5-61-12.7-123-9.6-184.3 1.6-31.2 4.5-62.8 8.7-93.8 0.6-4.2 1.5-8.6 2.6-13l32.6-121.4c8.5-31.6 36.1-54.2 68.8-56.1l208.6-12.3c4.2-0.2 8.4-0.4 12.6-0.4s8.4 0.1 12.6 0.4L718 232.2c32.7 1.9 60.3 24.5 68.8 56.1l32.6 121.4c1.2 4.4 2.1 8.7 2.6 13 4.6 33.7 7.6 67.9 9.1 101.8 5.3 120.2-13.8 239.6-56.6 354.8l-11.8 31.8c-8.5 22.9-30.7 38.4-55.2 38.4H286.2z" fill="#ED393A" p-id="1918"></path><path d="M496.9 229.5c4 0 8 0.1 12 0.4l208.6 12.3c28.4 1.7 52.4 21.2 59.8 48.7l32.6 121.4c1.1 4 1.9 7.9 2.4 11.8 4.5 33.3 7.6 67.3 9 100.9 2.6 59.1-0.9 119.1-10.4 178.2-9.4 58.5-24.7 116.6-45.6 172.7l-11.8 31.8c-7.1 19.1-25.5 31.8-45.8 31.8H286.2c-20.3 0-38.7-12.8-45.8-31.8L228.6 876c-21.3-57.3-36.8-116.7-46.2-176.7-9.4-60.4-12.6-121.7-9.5-182.2 1.6-31 4.5-62.2 8.7-93 0.5-3.8 1.3-7.8 2.4-11.8l32.6-121.4c7.4-27.4 31.4-47 59.8-48.7L485 229.9c3.9-0.3 7.9-0.4 11.9-0.4m0-20c-4.4 0-8.8 0.1-13.2 0.4l-208.6 12.3c-36.9 2.2-68.3 27.8-77.9 63.5l-32.6 121.4c-1.3 4.7-2.2 9.4-2.9 14.2-4.3 31.4-7.2 63-8.8 94.6-6.4 124.9 13.3 249.7 56.9 366.9l11.8 31.8c10 27 35.8 44.9 64.6 44.9h421.4c28.8 0 54.5-17.9 64.6-44.9l11.8-31.8c42.6-114.6 62.6-236.6 57.3-358.7-1.5-34.3-4.6-68.6-9.2-102.7-0.7-4.8-1.6-9.6-2.9-14.2l-32.6-121.4c-9.6-35.7-41-61.3-77.9-63.5L510.1 210c-4.4-0.4-8.8-0.5-13.2-0.5z" fill="#771725" p-id="1919"></path><path d="M288.976 679.631l207.958-207.958L704.892 679.63 496.934 887.589z" fill="#FFD400" p-id="1920"></path><path d="M496.9 485.8l193.8 193.8-193.8 193.9-193.8-193.8 193.8-193.9m0-28.3L274.8 679.7l222.1 222.1L719 679.7 496.9 457.5z" fill="#771725" p-id="1921"></path><path d="M823.7 434.8c-8.9-0.6-24.6-16-39.9-30.9-29.1-28.5-69-67.6-119.9-67.6-25 0-50.4 9.5-75.6 28.1-44 32.5-86.3 48.4-129.3 48.4-47.8 0-91.9-19.5-134.5-38.3-8.4-3.7-17.1-7.6-25.7-11.2-14.2-6-28.4-9.1-42.2-9.1-30 0-54.5 14.2-74.7 27.5l25.1-93.4c8.5-31.6 36.1-54.2 68.8-56.1l208.6-12.3c4.2-0.2 8.4-0.4 12.6-0.4s8.4 0.1 12.6 0.4l208.6 12.3c32.7 1.9 60.3 24.5 68.8 56.1l32.6 121.4c1.2 4.4 2.1 8.7 2.6 13 0.4 3.8 1 7.8 1.5 12.1z" fill="#FFD400" p-id="1922"></path><path d="M496.9 229.5c4 0 8 0.1 12 0.4l208.6 12.3c28.4 1.7 52.4 21.2 59.8 48.7l32.6 121.4c0.3 1 0.5 2 0.8 3.1-6-5.1-12.7-11.7-19.8-18.7C760.6 367 719 326.3 664 326.3c-27.2 0-54.6 10.1-81.6 30.1-42.2 31.2-82.5 46.4-123.3 46.4-45.7 0-86.8-18.2-130.4-37.5-8.5-3.7-17.2-7.6-25.9-11.3-15.4-6.5-31-9.8-46.1-9.8-22.5 0-41.8 7.1-58.6 16.1l18.6-69.4c7.4-27.4 31.4-47 59.8-48.7l208.6-12.3c3.8-0.3 7.8-0.4 11.8-0.4m0-20c-4.4 0-8.8 0.1-13.2 0.4l-208.6 12.3c-36.9 2.2-68.3 27.8-77.9 63.5l-31.9 118.6c25-15.2 53.2-40.2 91.2-40.2 11.8 0 24.5 2.4 38.3 8.3 52.4 22.2 104.5 50.3 164.1 50.3 40.7 0 85-13.1 135.2-50.3 25.4-18.8 48.5-26.1 69.7-26.1 77.3 0 127.6 98.5 160.3 98.5 2 0 3.9-0.4 5.8-1.1 1.6-0.7 3.1-1.4 4.6-2.1-0.8-6.7-1.6-13.4-2.5-20.1-0.7-4.8-1.6-9.6-2.9-14.2l-32.6-121.4c-9.6-35.7-41-61.3-77.9-63.5L510 210.1c-4.3-0.5-8.7-0.6-13.1-0.6z" fill="#771725" p-id="1923"></path><path d="M414 189.1h165.9v26.1H414z" fill="#771725" p-id="1924"></path><path d="M346.6 179.1c-11.8 0-21.5-9.6-21.5-21.5V95.4c0-11.8 9.6-21.5 21.5-21.5h300.7c11.8 0 21.5 9.6 21.5 21.5v62.2c0 11.8-9.6 21.5-21.5 21.5H346.6z" fill="#ED393A" p-id="1925"></path><path d="M647.3 83.9c6.3 0 11.5 5.1 11.5 11.5v62.2c0 6.3-5.1 11.5-11.5 11.5H346.6c-6.3 0-11.5-5.1-11.5-11.5V95.4c0-6.3 5.1-11.5 11.5-11.5h300.7m0-20H346.6c-17.4 0-31.5 14.1-31.5 31.5v62.2c0 17.4 14.1 31.5 31.5 31.5h300.7c17.4 0 31.5-14.1 31.5-31.5V95.4c-0.1-17.4-14.2-31.5-31.5-31.5zM459.1 621.6c-3.3 2.9-8.4 2.5-11.3-0.8l-11.4-13.2c-2.9-3.3-2.5-8.4 0.8-11.3 3.3-2.9 8.4-2.5 11.3 0.8l11.4 13.2c2.9 3.4 2.6 8.5-0.8 11.3zM436 663.5c-3.5 2.7-8.5 2-11.2-1.5L410 642.5c-2.7-3.5-2-8.5 1.5-11.2 3.5-2.7 8.5-2 11.2 1.5l14.8 19.5c2.7 3.5 2 8.5-1.5 11.2zM424 752c-4.2-1.2-6.7-5.6-5.5-9.9l17.9-62.9c1.2-4.2 5.6-6.7 9.9-5.5 4.2 1.2 6.7 5.6 5.5 9.9l-17.9 62.9c-1.3 4.2-5.7 6.7-9.9 5.5zM562.4 622.5h-83c-4.4 0-8-3.6-8-8s3.6-8 8-8h83c4.4 0 8 3.6 8 8-0.1 4.4-3.6 8-8 8zM558.9 739.2h-79.6c-4.4 0-8-3.6-8-8s3.6-8 8-8h79.6c4.4 0 8 3.6 8 8s-3.6 8-8 8zM502.5 716.1h-23.2c-4.4 0-8-3.6-8-8s3.6-8 8-8h23.2c4.4 0 8 3.6 8 8 0 4.5-3.6 8-8 8zM558.9 666.7h-86.1c-4.4 0-8-3.6-8-8s3.6-8 8-8h86.1c4.4 0 8 3.6 8 8s-3.6 8-8 8z" fill="#771725" p-id="1926"></path><path d="M480.8 658.7v83c0 4.4-3.6 8-8 8s-8-3.6-8-8v-83c0-4.4 3.6-8 8-8s8 3.6 8 8zM506.1 621.6v60.5c0 4.4-3.6 8-8 8s-8-3.6-8-8v-60.5c0-2.4 2-4.4 4.4-4.4h7.1c2.5 0 4.5 2 4.5 4.4zM536.5 621.6v74.9c0 4.4-3.6 8-8 8s-8-3.6-8-8v-74.9c0-2.4 2-4.4 4.4-4.4h7.1c2.5 0 4.5 2 4.5 4.4zM566.9 658.7v104.8c0 4.4-3.6 8-8 8s-8-3.6-8-8V658.7c0-4.4 3.6-8 8-8s8 3.6 8 8z" fill="#771725" p-id="1927"></path></svg>